/* XPM */
static char * xscreensaver_openindiana_logo_50_xpm[] = {
"50 50 22 1",
" 	c #66AACC",
".	c #99AACC",
"+	c #667FCC",
"@	c #33AACC",
"#	c #337FCC",
"$	c #667F99",
"%	c #33AA99",
"&	c #337F99",
"*	c #33AAFF",
"=	c #66AAFF",
"-	c #667FFF",
";	c #337FFF",
">	c #66D4CC",
",	c #33D4FF",
"'	c #33D4CC",
")	c #66D4FF",
"!	c #99D4FF",
"~	c #99AAFF",
"{	c #99D4CC",
"]	c #CCD4FF",
"^	c #007FCC",
"/	c #007F99",
"       .  .  . .  . .  . . . . . . . . . . . . .  ",
"                                                . ",
" + +                                              ",
"@ # # + + + + +  + +  +  +  +  +                  ",
" # @+@+@ @ @ @ # @ @+@ # @+@ @+ @+ + + +  +    + +",
"@$@+%+@ #+@++ #  +@+ +@ + @+ + @+ @+@ @ #    +    ",
" #@+@ # @ # @# #@+@ @+@+@+@ #@ +@ +@ +   @+@+@ # #",
"# #@+@# #$@ & @+ @+@+@+@ @+@ +@ # @+@ #@+ @       ",
"@@+@# %# @# # #@@+@ @ @+@+@ #@ # @  @   @ +@ # @+@",
" #@#@@+@#@ #@@ # @+@# #@ @ @ +@ @ # # # # @   @   ",
"@ @ #@@ @+@@+@@ #@@ @@ @# # @@ # @ @ @ @  @+@  @+@",
" #@#@+@#@@# @@+@ @+@# #  @@ # @ @ #  @  @  @  @   ",
"@@ @@@ @+@ @# @@# @ @ @@@  @ @ @ @ @  * @=@= @= @ ",
" @#@+@#@@@#@ @@ @ @@ @@  #@ @ @=@ =@=@ @    *   @ ",
"@@ @@@ * @ @@-@@ *+@=# *@=@=@=@  @  @ = * @  @=@= ",
" *@; *@@#=@* @@-@@@ @@ @ @ @ @ @=@=@=@ @ = * =  @ ",
"@ @@@ @ @@ @@ @ @=@=@=@=@=@=@=@=@ @  =@=@ @ =@ =  ",
"=@* @*#* @*@ *@* @ @@ @ @ @ @  @= =@=@=  = *> , * ",
"@@ @* @@@ @+@ @ @* @=@=@=@=@=@= @=@> @>*>*>= =  >*",
"=@*@@@@ *@=@*@=@@ * @ @ @ @ =@ * '= *==  = @)@)@= ",
"@@@ * *@+@@@ @@ *@ @* * * * @=' * @=>@>*>@=> = = @",
"@@*#@@+@@ @+@@ #@ @ @ @@ @ * @ *  * @=@=@= * *>@) ",
"@ #@@@@*@*@@=@@=@@* @* @=@ @ * @ *  *   )@>=  = @=",
"@*@@*#@@ # #@ #@ @ #@ @@ @@=@ @=@ @@ >* @= @='='= ",
"@@#@#@@#@@@@ @* #@@=@ @=@ @@ @ @ * =@@ @=@ ,  @= @",
"+@@@@@#@@# @#@#@ @ @@# #@@ * @=@ @ @= =@  *  *> * ",
"@@#*#@@#@@;@ @ @;@# @=@@ * @@ @ @ @ @@ @=@ @= *  @",
"@@@@@@#@@#@@#@#@ @=@#@@ @+@# #@@ *@ @ @ @  * @  * ",
"@# #@#@@#@@#@@@@#@@@ @+@@@ @ @ # @ @=@ * @=@ , * @",
"@*@#@@=#@@#@@#@#@ @+@@@; @# @#@ @@ # @ @ @ @ @= @ ",
"@#@@@#@@#@@#@@#@@#@@*+@ @@ *# @# #@ @ @ * @=@ @=@=",
" @@;@@#@@@#@@#@*#@#@#@@@#@# @@ * @ #@*+@ @ @ * @ @",
"@#@@@#*@#*@#@@  @@@#@@#@@ @@# #@@+@ @ @@=@=@ @=@=@",
"@@@#@@@@@#@=@#!.@;@@#@@#@#@#@@@+@@*@# @ @@ @=@ @ @",
"@#*@#@#@@@@#@@ @#@@@*#@@#@@#@#@@#@#@@#@#@@@@@@*@@#",
"@@#@@*@ ~{~ #@ =@@@#@@#@*@#*@@@#@@@#@@*@@;@#*@@@@@",
"@@@@#@ !.={! *. @#@@@@@@#@@@#@;@@#@@*#@#@@@@@#*@#@",
"@#@#@@] @@@ !@{= = =# ;@@*#@@@@@@@*#@@@@@*#@*@@@@#",
"@#@@# !@@#@@] ! @@@ !@@@#@@*#*@#*@ @@;@*@@@@#@#*@#",
"#@@#@ {#@*@@! {=@@@= @#@@* @@@=@@@#*@@@@ #@*@*@@#@",
"@##@#@! #@# !@! @; !@*@*@@#*@@@@*@@@@*@;@*@@#@@#@#",
"@#@#@# !   !.#! @.! @@@#@*@@@#*@#@*@;@@@@@@@@#@@@#",
"#@#@+@# {!{ @@.~! @@#*@@*@@*@*@@*@@@@@*@*#*#@@@#@#",
"@#& @#@#@##@@ !{@@@*@@*@@*@@@@@*@ *@=@@#@@@@*#@#@#",
"#&@+#%#@#@  !.@@@*#@@@@# @@* *@@@*@@@*@@@#@@#@@#@#",
"@#  @#@  .. @@#@#@@@@#*@*@;@@#@*@@@;@@#*@*@#@@#@##",
"&#&  .   @#@#@@#@@#*@@@@@@@*@*@@;@@@@*@@#@@@#@#@^&",
"@&^&#&#&##@#@##@@#@@@#@*#*@@@@*@@*@*@@#@@#@#@#@#@#",
"#&#&^&##/####@##@#@#@@#@@#@#@#@#@#@#@#@@#@#@##/#&/",
"&^&^&#/&#/&/#/#^##########@#@#@#@#@##@######^&##/#"};
