<?xml version="1.0" encoding="UTF-8" standalone="no"?>
<!-- Created with Inkscape (http://www.inkscape.org/) -->
<svg
   xmlns:dc="http://purl.org/dc/elements/1.1/"
   xmlns:cc="http://creativecommons.org/ns#"
   xmlns:rdf="http://www.w3.org/1999/02/22-rdf-syntax-ns#"
   xmlns:svg="http://www.w3.org/2000/svg"
   xmlns="http://www.w3.org/2000/svg"
   xmlns:xlink="http://www.w3.org/1999/xlink"
   xmlns:sodipodi="http://sodipodi.sourceforge.net/DTD/sodipodi-0.dtd"
   xmlns:inkscape="http://www.inkscape.org/namespaces/inkscape"
   width="48"
   height="48"
   id="svg2"
   sodipodi:version="0.32"
   inkscape:version="0.45+devel"
   version="1.0"
   sodipodi:docname="visual-effects-medium.svg"
   inkscape:output_extension="org.inkscape.output.svg.inkscape">
  <defs
     id="defs4">
    <linearGradient
       inkscape:collect="always"
       id="linearGradient7735">
      <stop
         style="stop-color:#000000;stop-opacity:1;"
         offset="0"
         id="stop7737" />
      <stop
         style="stop-color:#000000;stop-opacity:0;"
         offset="1"
         id="stop7739" />
    </linearGradient>
    <linearGradient
       id="linearGradient3220">
      <stop
         id="stop3222"
         offset="0"
         style="stop-color:#2e3436;stop-opacity:1" />
      <stop
         style="stop-color:#888a85;stop-opacity:1;"
         offset="0.64444447"
         id="stop3228" />
      <stop
         id="stop3224"
         offset="1"
         style="stop-color:#555753;stop-opacity:1" />
    </linearGradient>
    <linearGradient
       id="linearGradient3241">
      <stop
         id="stop3243"
         offset="0"
         style="stop-color:#1b1f20;stop-opacity:1;" />
      <stop
         id="stop3245"
         offset="1"
         style="stop-color:#babdb6;stop-opacity:1" />
    </linearGradient>
    <linearGradient
       id="linearGradient3251"
       inkscape:collect="always">
      <stop
         id="stop3253"
         offset="0"
         style="stop-color:#ffffff;stop-opacity:1;" />
      <stop
         id="stop3255"
         offset="1"
         style="stop-color:#ffffff;stop-opacity:0;" />
    </linearGradient>
    <linearGradient
       id="linearGradient3339"
       inkscape:collect="always">
      <stop
         id="stop3341"
         offset="0"
         style="stop-color:#ffffff;stop-opacity:1;" />
      <stop
         id="stop3343"
         offset="1"
         style="stop-color:#ffffff;stop-opacity:0" />
    </linearGradient>
    <linearGradient
       id="linearGradient3338">
      <stop
         id="stop3340"
         offset="0"
         style="stop-color:#eeeeec;stop-opacity:1" />
      <stop
         style="stop-color:#ffffff;stop-opacity:1;"
         offset="0.78888887"
         id="stop3346" />
      <stop
         id="stop3342"
         offset="1"
         style="stop-color:#eeeeec;stop-opacity:1" />
    </linearGradient>
    <radialGradient
       inkscape:collect="always"
       xlink:href="#linearGradient3251"
       id="radialGradient6575"
       gradientUnits="userSpaceOnUse"
       cx="32.5"
       cy="16.5625"
       fx="32.5"
       fy="16.5625"
       r="14.4375" />
    <linearGradient
       inkscape:collect="always"
       xlink:href="#linearGradient3338"
       id="linearGradient6581"
       gradientUnits="userSpaceOnUse"
       x1="31.994286"
       y1="16.859249"
       x2="37.723743"
       y2="16.859249" />
    <linearGradient
       inkscape:collect="always"
       xlink:href="#linearGradient3220"
       id="linearGradient6594"
       gradientUnits="userSpaceOnUse"
       gradientTransform="translate(79.80785,-3.2278024)"
       x1="42.90625"
       y1="42.21875"
       x2="44.8125"
       y2="41.40625" />
    <linearGradient
       inkscape:collect="always"
       xlink:href="#linearGradient3241"
       id="linearGradient6597"
       gradientUnits="userSpaceOnUse"
       gradientTransform="translate(79.80785,-3.2278024)"
       x1="39"
       y1="26.125"
       x2="36.375"
       y2="20.4375" />
    <linearGradient
       inkscape:collect="always"
       xlink:href="#linearGradient3339"
       id="linearGradient6601"
       gradientUnits="userSpaceOnUse"
       gradientTransform="translate(79.80785,3.7721976)"
       x1="31"
       y1="12.875"
       x2="3.2591991"
       y2="24.893845" />
    <radialGradient
       inkscape:collect="always"
       xlink:href="#linearGradient7735"
       id="radialGradient7741"
       cx="111.08738"
       cy="42"
       fx="111.08738"
       fy="42"
       r="14"
       gradientTransform="matrix(1,0,0,0.1428571,0,36)"
       gradientUnits="userSpaceOnUse" />
  </defs>
  <sodipodi:namedview
     id="base"
     pagecolor="#ffffff"
     bordercolor="#666666"
     borderopacity="0.37647059"
     inkscape:pageopacity="0"
     inkscape:pageshadow="2"
     inkscape:zoom="1"
     inkscape:cx="18.575183"
     inkscape:cy="15.101508"
     inkscape:document-units="px"
     inkscape:current-layer="layer1"
     width="48px"
     height="48px"
     inkscape:showpageshadow="false"
     gridempspacing="2"
     gridspacingx="0.5px"
     gridspacingy="0.5px"
     inkscape:window-width="1025"
     inkscape:window-height="794"
     inkscape:window-x="5"
     inkscape:window-y="24"
     inkscape:snap-bbox="true"
     objecttolerance="1"
     gridtolerance="8"
     showborder="true"
     borderlayer="true"
     showguides="false"
     inkscape:guide-bbox="true">
    <inkscape:grid
       type="xygrid"
       id="grid6054"
       spacingx="0.5px"
       spacingy="0.5px"
       empspacing="2" />
    <sodipodi:guide
       orientation="horizontal"
       position="36.5"
       id="guide7729" />
    <sodipodi:guide
       orientation="horizontal"
       position="25.5"
       id="guide7731" />
    <sodipodi:guide
       orientation="vertical"
       position="-49.0625"
       id="guide7752" />
  </sodipodi:namedview>
  <metadata
     id="metadata7">
    <rdf:RDF>
      <cc:Work
         rdf:about="">
        <dc:format>image/svg+xml</dc:format>
        <dc:type
           rdf:resource="http://purl.org/dc/dcmitype/StillImage" />
        <dc:creator>
          <cc:Agent>
            <dc:title>Lapo Calamandrei</dc:title>
          </cc:Agent>
        </dc:creator>
        <cc:license
           rdf:resource="http://creativecommons.org/licenses/GPL/2.0/" />
        <dc:title>Visual Effects</dc:title>
      </cc:Work>
    </rdf:RDF>
  </metadata>
  <g
     inkscape:label="Livello 1"
     inkscape:groupmode="layer"
     id="layer1">
    <g
       style="display:none"
       transform="translate(51.277524,14.338228)"
       inkscape:label="Shadow"
       id="g2611" />
    <g
       transform="translate(51.277524,14.338228)"
       style="display:none"
       inkscape:label="Lavoro"
       id="g2613" />
    <g
       id="g6820">
      <g
         transform="translate(-80,0)"
         id="g7004">
        <path
           sodipodi:nodetypes="ccccc"
           id="path6537"
           d="M 80.18285,26.022198 C 107.42445,27.74975 90.25665,12.023264 111.30785,11.522198 L 116.59707,22.637237 C 106.9906,18.157926 100.41953,41.170233 80.05785,27.647198 L 80.18285,26.022198 z"
           style="opacity:0.44444442;fill:url(#linearGradient6601);fill-opacity:1;fill-rule:evenodd;stroke:none;stroke-width:1px;stroke-linecap:butt;stroke-linejoin:miter;stroke-opacity:1;display:inline" />
        <path
           sodipodi:type="inkscape:offset"
           inkscape:radius="0.931826"
           inkscape:original="M 8.90625 16.59375 L 8.75 20.28125 L 5.375 22.03125 L 8.8125 23.3125 L 9.4375 27.0625 L 11.71875 24.1875 L 15.5 24.75 L 13.46875 21.6875 L 15.15625 18.28125 L 11.625 19.28125 L 8.90625 16.59375 z "
           style="fill:#d3d7cf;fill-opacity:1;stroke:none;stroke-width:4;stroke-linecap:round;stroke-linejoin:round;stroke-miterlimit:4;stroke-dasharray:none;stroke-dashoffset:0;stroke-opacity:1"
           id="path6587"
           d="M 8.78125,15.65625 C 8.3233049,15.715333 7.9776728,16.100845 7.96875,16.5625 L 7.84375,19.71875 L 4.9375,21.21875 C 4.619715,21.395073 4.4334212,21.740049 4.4602679,22.10248 C 4.4871147,22.464911 4.7222039,22.778674 5.0625,22.90625 L 8,24 L 8.53125,27.21875 C 8.5960772,27.572338 8.8584951,27.857112 9.2056163,27.950568 C 9.5527375,28.044024 9.92266,27.929495 10.15625,27.65625 L 12.125,25.1875 L 15.375,25.65625 C 15.727994,25.697362 16.073643,25.534132 16.266153,25.23541 C 16.458663,24.936687 16.464519,24.55448 16.28125,24.25 L 14.53125,21.625 L 16,18.6875 C 16.166178,18.35617 16.120198,17.957857 15.882903,17.673102 C 15.645607,17.388347 15.262115,17.271295 14.90625,17.375 L 11.875,18.21875 L 9.5625,15.9375 C 9.3605445,15.726505 9.0713512,15.622396 8.78125,15.65625 L 8.78125,15.65625 z"
           transform="matrix(1.2726133,0,0,1.2726133,91.34394,-8.400444)" />
        <path
           transform="matrix(0.6659299,0,0,0.6659299,90.66513,3.1802349)"
           d="M 46.9375,16.5625 A 14.4375,14.4375 0 1 1 18.0625,16.5625 A 14.4375,14.4375 0 1 1 46.9375,16.5625 z"
           sodipodi:ry="14.4375"
           sodipodi:rx="14.4375"
           sodipodi:cy="16.5625"
           sodipodi:cx="32.5"
           id="path6539"
           style="fill:url(#radialGradient6575);fill-opacity:1;stroke:none;stroke-width:5;stroke-linecap:round;stroke-linejoin:round;stroke-miterlimit:4;stroke-dasharray:none;stroke-dashoffset:0;stroke-opacity:1"
           sodipodi:type="arc" />
        <path
           sodipodi:nodetypes="cc"
           id="path6541"
           d="M 112.30785,13.272198 L 125.30785,42.272198"
           style="fill:none;fill-opacity:1;fill-rule:evenodd;stroke:url(#linearGradient6597);stroke-width:4;stroke-linecap:round;stroke-linejoin:miter;stroke-miterlimit:4;stroke-dasharray:none;stroke-opacity:1;display:inline" />
        <path
           sodipodi:nodetypes="cc"
           id="path6543"
           d="M 112.30785,13.272198 L 125.30785,42.272198"
           style="fill:#ffffff;fill-opacity:1;fill-rule:evenodd;stroke:url(#linearGradient6594);stroke-width:2;stroke-linecap:round;stroke-linejoin:miter;stroke-miterlimit:4;stroke-dasharray:none;stroke-opacity:1;display:inline" />
        <path
           transform="matrix(1.2726133,0,0,1.2726133,91.34394,-8.400444)"
           d="M 15.5,24.75 L 11.728554,24.195391 L 9.4510341,27.075687 L 8.8130572,23.317446 L 5.3699407,22.041456 L 8.7470953,20.273343 L 8.8966522,16.604442 L 11.621825,19.26993 L 15.157373,18.278415 L 13.464468,21.693889 L 15.5,24.75 z"
           inkscape:randomized="0"
           inkscape:rounded="0"
           inkscape:flatsided="false"
           sodipodi:arg2="1.2349717"
           sodipodi:arg1="0.57542465"
           sodipodi:r2="2.590076"
           sodipodi:r1="5.5127692"
           sodipodi:cy="21.75"
           sodipodi:cx="10.875"
           sodipodi:sides="5"
           id="path6545"
           style="fill:#ffffff;fill-opacity:1;stroke:none;stroke-width:4;stroke-linecap:round;stroke-linejoin:round;stroke-miterlimit:4;stroke-dasharray:none;stroke-dashoffset:0;stroke-opacity:1"
           sodipodi:type="star" />
        <path
           sodipodi:type="inkscape:offset"
           inkscape:radius="1.3645214"
           inkscape:original="M 8.90625 16.59375 L 8.75 20.28125 L 5.375 22.03125 L 8.8125 23.3125 L 9.4375 27.0625 L 11.71875 24.1875 L 15.5 24.75 L 13.46875 21.6875 L 15.15625 18.28125 L 11.625 19.28125 L 8.90625 16.59375 z "
           style="fill:#d3d7cf;fill-opacity:1;stroke:none;stroke-width:4;stroke-linecap:round;stroke-linejoin:round;stroke-miterlimit:4;stroke-dasharray:none;stroke-dashoffset:0;stroke-opacity:1;display:inline"
           id="path6613"
           d="M 8.875,15.21875 C 8.1493418,15.229342 7.5589106,15.806042 7.53125,16.53125 L 7.40625,19.4375 L 4.75,20.8125 C 4.2650259,21.059334 3.973054,21.570705 4.0069987,22.11382 C 4.0409435,22.656936 4.3943158,23.127973 4.90625,23.3125 L 7.59375,24.3125 L 8.09375,27.28125 C 8.1850498,27.809176 8.5768185,28.234838 9.0953743,28.369528 C 9.6139302,28.504217 10.163326,28.323014 10.5,27.90625 L 12.28125,25.65625 L 15.3125,26.09375 C 15.837891,26.157882 16.352982,25.912426 16.634107,25.463964 C 16.915232,25.015503 16.911683,24.444929 16.625,24 L 15.03125,21.59375 L 16.375,18.875 C 16.606743,18.392619 16.535142,17.819305 16.19188,17.408736 C 15.848617,16.998167 15.297056,16.826131 14.78125,16.96875 L 12.03125,17.75 L 9.875,15.625 C 9.6116603,15.357912 9.2499982,15.210987 8.875,15.21875 z"
           transform="matrix(0.5838837,0.5838837,-0.5838837,0.5838837,103.75314,7.7505744)" />
        <path
           transform="matrix(0.5838837,0.5838837,-0.5838837,0.5838837,103.75314,7.7505744)"
           d="M 15.5,24.75 L 11.728554,24.195391 L 9.4510341,27.075687 L 8.8130572,23.317446 L 5.3699407,22.041456 L 8.7470953,20.273343 L 8.8966522,16.604442 L 11.621825,19.26993 L 15.157373,18.278415 L 13.464468,21.693889 L 15.5,24.75 z"
           inkscape:randomized="0"
           inkscape:rounded="0"
           inkscape:flatsided="false"
           sodipodi:arg2="1.2349717"
           sodipodi:arg1="0.57542465"
           sodipodi:r2="2.590076"
           sodipodi:r1="5.5127692"
           sodipodi:cy="21.75"
           sodipodi:cx="10.875"
           sodipodi:sides="5"
           id="path6547"
           style="fill:#ffffff;fill-opacity:1;stroke:none;stroke-width:4;stroke-linecap:round;stroke-linejoin:round;stroke-miterlimit:4;stroke-dasharray:none;stroke-dashoffset:0;stroke-opacity:1;display:inline"
           sodipodi:type="star" />
        <path
           sodipodi:type="inkscape:offset"
           inkscape:radius="1.8993843"
           inkscape:original="M 8.90625 16.59375 L 8.75 20.28125 L 5.375 22.03125 L 8.8125 23.3125 L 9.4375 27.0625 L 11.71875 24.1875 L 15.5 24.75 L 13.46875 21.6875 L 15.15625 18.28125 L 11.625 19.28125 L 8.90625 16.59375 z "
           style="fill:#d3d7cf;fill-opacity:1;stroke:none;stroke-width:4;stroke-linecap:round;stroke-linejoin:round;stroke-miterlimit:4;stroke-dasharray:none;stroke-dashoffset:0;stroke-opacity:1;display:inline"
           id="path6617"
           d="M 8.875,14.6875 C 7.8684979,14.699467 7.046069,15.494482 7,16.5 L 6.875,19.09375 L 4.5,20.34375 C 3.8321089,20.690313 3.4317362,21.398443 3.4790941,22.149404 C 3.526452,22.900365 4.0126126,23.552587 4.71875,23.8125 L 7.125,24.71875 L 7.5625,27.375 C 7.679281,28.123353 8.2294677,28.730815 8.9626379,28.920897 C 9.6958082,29.110978 10.471834,28.847348 10.9375,28.25 L 12.53125,26.21875 L 15.21875,26.625 C 15.965906,26.744438 16.712696,26.40907 17.119797,25.77128 C 17.526897,25.133489 17.516665,24.314916 17.09375,23.6875 L 15.65625,21.53125 L 16.84375,19.125 C 17.168073,18.453244 17.069206,17.653844 16.590999,17.081342 C 16.112791,16.50884 15.343768,16.269218 14.625,16.46875 L 12.1875,17.15625 L 10.25,15.25 C 9.8870302,14.883618 9.3906888,14.680569 8.875,14.6875 z"
           transform="matrix(0.5791026,0.1286037,-0.1286037,0.5791026,84.51644,14.871697)" />
        <path
           transform="matrix(0.5791026,0.1286037,-0.1286037,0.5791026,84.51644,14.871697)"
           d="M 15.5,24.75 L 11.728554,24.195391 L 9.4510341,27.075687 L 8.8130572,23.317446 L 5.3699407,22.041456 L 8.7470953,20.273343 L 8.8966522,16.604442 L 11.621825,19.26993 L 15.157373,18.278415 L 13.464468,21.693889 L 15.5,24.75 z"
           inkscape:randomized="0"
           inkscape:rounded="0"
           inkscape:flatsided="false"
           sodipodi:arg2="1.2349717"
           sodipodi:arg1="0.57542465"
           sodipodi:r2="2.590076"
           sodipodi:r1="5.5127692"
           sodipodi:cy="21.75"
           sodipodi:cx="10.875"
           sodipodi:sides="5"
           id="path6549"
           style="fill:#ffffff;fill-opacity:1;stroke:none;stroke-width:4;stroke-linecap:round;stroke-linejoin:round;stroke-miterlimit:4;stroke-dasharray:none;stroke-dashoffset:0;stroke-opacity:1;display:inline"
           sodipodi:type="star" />
        <path
           transform="translate(79.27752,0.2721976)"
           d="M 32.9375,11.9375 C 32.879389,11.943775 32.841679,11.954412 32.78125,11.96875 C 32.480508,12.044301 32.224153,12.283065 32.09375,12.5625 C 31.963347,12.841935 31.958934,13.12817 32.09375,13.40625 L 35.84375,21.75 C 35.837094,21.759353 35.837094,21.771897 35.84375,21.78125 C 35.853103,21.787906 35.865647,21.787906 35.875,21.78125 C 35.884353,21.787906 35.896897,21.787906 35.90625,21.78125 C 35.912906,21.771897 35.912906,21.759353 35.90625,21.75 C 36.140708,21.344226 36.483208,21.082875 36.9375,20.96875 C 37.186308,20.909716 37.448221,20.917711 37.6875,20.96875 C 37.696853,20.975406 37.709397,20.975406 37.71875,20.96875 C 37.725406,20.959397 37.725406,20.946853 37.71875,20.9375 L 33.96875,12.59375 C 33.824845,12.242701 33.483751,11.983006 33.125,11.9375 C 33.064511,11.929827 32.995611,11.931225 32.9375,11.9375 z"
           id="path6551"
           style="fill:url(#linearGradient6581);fill-opacity:1;fill-rule:evenodd;stroke:none;stroke-width:2;stroke-linecap:round;stroke-linejoin:miter;stroke-miterlimit:4;stroke-dasharray:none;stroke-opacity:1;display:inline"
           inkscape:original="M 33.125 11.96875 C 33.008736 11.954002 32.901006 11.971586 32.78125 12 C 32.489313 12.073339 32.252292 12.289732 32.125 12.5625 C 31.997708 12.835268 31.993687 13.135395 32.125 13.40625 L 35.875 21.75 C 36.112714 21.338591 36.476318 21.053356 36.9375 20.9375 C 37.190796 20.877401 37.445043 20.885783 37.6875 20.9375 L 33.9375 12.59375 C 33.797448 12.252099 33.473792 12.012993 33.125 11.96875 z "
           inkscape:radius="0.026945664"
           sodipodi:type="inkscape:offset" />
      </g>
      <path
         transform="matrix(0.9196428,0,0,1,-64.035703,1)"
         d="M 124,42 A 14,2 0 1 1 96,42 A 14,2 0 1 1 124,42 z"
         sodipodi:ry="2"
         sodipodi:rx="14"
         sodipodi:cy="42"
         sodipodi:cx="110"
         id="path7733"
         style="opacity:0.06;fill:url(#radialGradient7741);fill-opacity:1;fill-rule:evenodd;stroke:none;stroke-width:1;stroke-linecap:round;stroke-linejoin:miter;marker:none;marker-start:none;marker-mid:none;marker-end:none;stroke-miterlimit:4;stroke-dasharray:none;stroke-dashoffset:0.67741673999999996;stroke-opacity:1;visibility:visible;display:inline;overflow:visible;enable-background:accumulate"
         sodipodi:type="arc" />
    </g>
  </g>
</svg>
