#define dotwave2.xbm_width 32
#define dotwave2.xbm_height 32
static char dotwave2.xbm_bits[] = {
   0x02, 0x00, 0x00, 0x40, 0x00, 0x00, 0x00, 0x00, 0x00, 0x00, 0x00, 0x00,
   0x00, 0x00, 0x00, 0x00, 0x00, 0x00, 0x00, 0x00, 0x00, 0x90, 0x04, 0x00,
   0x00, 0x01, 0x40, 0x00, 0x10, 0x00, 0x00, 0x04, 0x02, 0x00, 0x00, 0x40,
   0x00, 0x00, 0x00, 0x00, 0x00, 0x00, 0x00, 0x00, 0x00, 0x00, 0x00, 0x00,
   0x00, 0x00, 0x00, 0x00, 0x00, 0x90, 0x04, 0x00, 0x00, 0x01, 0x40, 0x00,
   0x10, 0x00, 0x00, 0x04, 0x02, 0x00, 0x00, 0x40, 0x00, 0x00, 0x00, 0x00,
   0x00, 0x00, 0x00, 0x00, 0x00, 0x00, 0x00, 0x00, 0x00, 0x00, 0x00, 0x00,
   0x00, 0x90, 0x04, 0x00, 0x00, 0x01, 0x40, 0x00, 0x10, 0x00, 0x00, 0x04,
   0x02, 0x00, 0x00, 0x40, 0x00, 0x00, 0x00, 0x00, 0x00, 0x00, 0x00, 0x00,
   0x00, 0x00, 0x00, 0x00, 0x00, 0x00, 0x00, 0x00, 0x00, 0x90, 0x04, 0x00,
   0x00, 0x01, 0x40, 0x00, 0x10, 0x00, 0x00, 0x04};
