#define flower_tile_width 32
#define flower_tile_height 32
static char flower_tile_bits[] = {
   0x00, 0x60, 0x00, 0x60, 0x05, 0x00, 0x05, 0x00, 0x01, 0x40, 0x01, 0x40,
   0x00, 0x00, 0x00, 0x00, 0x00, 0x00, 0x00, 0x00, 0x80, 0x00, 0x80, 0x00,
   0x80, 0x00, 0x80, 0x00, 0x00, 0x06, 0x00, 0x06, 0x60, 0x00, 0x60, 0x00,
   0x00, 0x01, 0x00, 0x01, 0x00, 0x01, 0x00, 0x01, 0x00, 0x00, 0x00, 0x00,
   0x00, 0x00, 0x00, 0x00, 0x02, 0x80, 0x02, 0x80, 0x00, 0xa0, 0x00, 0xa0,
   0x06, 0x00, 0x06, 0x00, 0x00, 0x60, 0x00, 0x60, 0x05, 0x00, 0x05, 0x00,
   0x01, 0x40, 0x01, 0x40, 0x00, 0x00, 0x00, 0x00, 0x00, 0x00, 0x00, 0x00,
   0x80, 0x00, 0x80, 0x00, 0x80, 0x00, 0x80, 0x00, 0x00, 0x06, 0x00, 0x06,
   0x60, 0x00, 0x60, 0x00, 0x00, 0x01, 0x00, 0x01, 0x00, 0x01, 0x00, 0x01,
   0x00, 0x00, 0x00, 0x00, 0x00, 0x00, 0x00, 0x00, 0x02, 0x80, 0x02, 0x80,
   0x00, 0xa0, 0x00, 0xa0, 0x06, 0x00, 0x06, 0x00};
