#define flyseye_width 16
#define flyseye_height 16
static char flyseye_bits[] = {
 0xe0,0x1b,0x70,0x28,0xb8,0x08,0x58,0x10,0x1b,0xe0,0x28,0x70,0x08,0xb8,0x10,
 0x58,0xe0,0x1b,0x70,0x28,0xb8,0x08,0x58,0x10,0x1b,0xe0,0x28,0x70,0x08,0xb8,
 0x10,0x58};
