#define gray50_width 4
#define gray50_height 4
static unsigned char gray50_bits[] = {
   0x05, 0x0a, 0x05, 0x0a};
