#define block_tile_width 32
#define block_tile_height 32
static char block_tile_bits[] = {
   0x04, 0x00, 0x00, 0x20, 0x04, 0x00, 0x7e, 0x20, 0x07, 0x00, 0x42, 0xe0,
   0x00, 0x00, 0x42, 0x00, 0x00, 0x00, 0x42, 0x00, 0xe0, 0x07, 0x42, 0x00,
   0x20, 0x04, 0x7e, 0x00, 0x20, 0x04, 0x00, 0x00, 0x20, 0x04, 0x00, 0x00,
   0x20, 0x04, 0x00, 0x7e, 0xe0, 0x07, 0x00, 0x42, 0x00, 0x00, 0x00, 0x42,
   0x00, 0x00, 0x00, 0x42, 0x00, 0xe0, 0x07, 0x42, 0x00, 0x20, 0x04, 0x7e,
   0x00, 0x20, 0x04, 0x00, 0x00, 0x20, 0x04, 0x00, 0x7e, 0x20, 0x04, 0x00,
   0x42, 0xe0, 0x07, 0x00, 0x42, 0x00, 0x00, 0x00, 0x42, 0x00, 0x00, 0x00,
   0x42, 0x00, 0xe0, 0x07, 0x7e, 0x00, 0x20, 0x04, 0x00, 0x00, 0x20, 0x04,
   0x00, 0x00, 0x20, 0x04, 0x00, 0x7e, 0x20, 0x04, 0x00, 0x42, 0xe0, 0x07,
   0x00, 0x42, 0x00, 0x00, 0x00, 0x42, 0x00, 0x00, 0x07, 0x42, 0x00, 0xe0,
   0x04, 0x7e, 0x00, 0x20, 0x04, 0x00, 0x00, 0x20};
