<?xml version="1.0" encoding="UTF-8" standalone="no"?>
<svg
   xmlns:dc="http://purl.org/dc/elements/1.1/"
   xmlns:cc="http://web.resource.org/cc/"
   xmlns:rdf="http://www.w3.org/1999/02/22-rdf-syntax-ns#"
   xmlns:svg="http://www.w3.org/2000/svg"
   xmlns="http://www.w3.org/2000/svg"
   xmlns:xlink="http://www.w3.org/1999/xlink"
   xmlns:sodipodi="http://inkscape.sourceforge.net/DTD/sodipodi-0.dtd"
   xmlns:inkscape="http://www.inkscape.org/namespaces/inkscape"
   width="540"
   height="530"
   id="svg2"
   sodipodi:version="0.32"
   inkscape:version="0.42.2"
   sodipodi:docname="elephant-shine-thick-admin.svg"
   sodipodi:docbase="/home/frederick/store/multi-media/gfx/svg/work/elephant-shine-thick"
   inkscape:export-filename="/home/frederick/elephant3.png"
   inkscape:export-xdpi="12.000000"
   inkscape:export-ydpi="12.000000">
  <metadata
     id="metadata13">
    <rdf:RDF>
      <cc:Work
         rdf:about="">
        <dc:format>image/svg+xml</dc:format>
        <dc:type
           rdf:resource="http://purl.org/dc/dcmitype/StillImage" />
      </cc:Work>
    </rdf:RDF>
  </metadata>
  <defs
     id="defs11">
    <linearGradient
       id="linearGradient2227">
      <stop
         style="stop-color:#a7eaff;stop-opacity:0.19607843;"
         offset="0.0000000"
         id="stop2229" />
      <stop
         style="stop-color:#ffffff;stop-opacity:0;"
         offset="1"
         id="stop2231" />
    </linearGradient>
    <linearGradient
       id="linearGradient2217">
      <stop
         style="stop-color:#6ddbff;stop-opacity:1.0000000;"
         offset="0.0000000"
         id="stop2219" />
      <stop
         style="stop-color:#ffffff;stop-opacity:0.0000000;"
         offset="1.0000000"
         id="stop2221" />
    </linearGradient>
    <linearGradient
       id="linearGradient2209">
      <stop
         style="stop-color:#0bc2ff;stop-opacity:1.0000000;"
         offset="0.0000000"
         id="stop2211" />
      <stop
         style="stop-color:#00526e;stop-opacity:1.0000000;"
         offset="1.0000000"
         id="stop2213" />
    </linearGradient>
    <radialGradient
       inkscape:collect="always"
       xlink:href="#linearGradient2209"
       id="radialGradient2215"
       cx="485.34000"
       cy="479.94733"
       fx="485.34000"
       fy="479.94733"
       r="214.94757"
       gradientTransform="matrix(2.325646e-6,-2.736295,3.060832,2.603529e-6,-983.6991,1799.857)"
       gradientUnits="userSpaceOnUse" />
    <linearGradient
       inkscape:collect="always"
       xlink:href="#linearGradient2217"
       id="linearGradient2223"
       x1="55.444859"
       y1="58.176041"
       x2="261.63647"
       y2="286.60672"
       gradientUnits="userSpaceOnUse" />
    <linearGradient
       inkscape:collect="always"
       xlink:href="#linearGradient2227"
       id="linearGradient2233"
       x1="485.34000"
       y1="471.82397"
       x2="350.39243"
       y2="334.55481"
       gradientUnits="userSpaceOnUse" />
    <linearGradient
       inkscape:collect="always"
       xlink:href="#linearGradient2227"
       id="linearGradient2241"
       x1="49.997669"
       y1="50.999153"
       x2="212.03847"
       y2="210.05708"
       gradientUnits="userSpaceOnUse" />
    <radialGradient
       inkscape:collect="always"
       xlink:href="#linearGradient2209"
       id="radialGradient1558"
       gradientUnits="userSpaceOnUse"
       gradientTransform="matrix(2.325646e-6,-2.736295,3.060832,2.603529e-6,-983.6991,1799.857)"
       cx="485.34000"
       cy="479.94733"
       fx="485.34000"
       fy="479.94733"
       r="214.94757" />
    <linearGradient
       inkscape:collect="always"
       xlink:href="#linearGradient2217"
       id="linearGradient1560"
       gradientUnits="userSpaceOnUse"
       x1="55.444859"
       y1="58.176041"
       x2="261.63647"
       y2="286.60672" />
    <linearGradient
       inkscape:collect="always"
       xlink:href="#linearGradient2227"
       id="linearGradient1562"
       gradientUnits="userSpaceOnUse"
       x1="49.997669"
       y1="50.999153"
       x2="212.03847"
       y2="210.05708" />
    <linearGradient
       inkscape:collect="always"
       xlink:href="#linearGradient2227"
       id="linearGradient1564"
       gradientUnits="userSpaceOnUse"
       x1="485.34000"
       y1="471.82397"
       x2="350.39243"
       y2="334.55481" />
    <linearGradient
       inkscape:collect="always"
       xlink:href="#linearGradient2227"
       id="linearGradient1569"
       gradientUnits="userSpaceOnUse"
       x1="485.34000"
       y1="471.82397"
       x2="350.39243"
       y2="334.55481"
       gradientTransform="translate(-575.4644,-78.57558)" />
    <linearGradient
       inkscape:collect="always"
       xlink:href="#linearGradient2227"
       id="linearGradient1572"
       gradientUnits="userSpaceOnUse"
       x1="49.997669"
       y1="50.999153"
       x2="212.03847"
       y2="210.05708"
       gradientTransform="translate(-575.4644,-78.57558)" />
    <linearGradient
       inkscape:collect="always"
       xlink:href="#linearGradient2217"
       id="linearGradient1575"
       gradientUnits="userSpaceOnUse"
       x1="55.444859"
       y1="58.176041"
       x2="261.63647"
       y2="286.60672"
       gradientTransform="translate(-575.4644,-78.57558)" />
    <radialGradient
       inkscape:collect="always"
       xlink:href="#linearGradient2209"
       id="radialGradient1579"
       gradientUnits="userSpaceOnUse"
       gradientTransform="matrix(2.325646e-6,-2.736295,3.060832,2.603529e-6,-1559.164,1721.281)"
       cx="485.34000"
       cy="479.94733"
       fx="485.34000"
       fy="479.94733"
       r="214.94757" />
  </defs>
  <sodipodi:namedview
     inkscape:window-height="771"
     inkscape:window-width="1169"
     inkscape:pageshadow="2"
     inkscape:pageopacity="0.0"
     borderopacity="1.0"
     bordercolor="#666666"
     pagecolor="#ffffff"
     id="base"
     inkscape:zoom="0.64905660"
     inkscape:cx="108.25624"
     inkscape:cy="291.04687"
     inkscape:window-x="0"
     inkscape:window-y="0"
     inkscape:current-layer="svg2"
     showguides="true"
     inkscape:guide-bbox="true" />
  <rect
     style="opacity:1.0000000;fill:url(#radialGradient2215);fill-opacity:1.0;fill-rule:evenodd;stroke:none;stroke-width:3.5224507;stroke-linecap:square;stroke-linejoin:round;stroke-miterlimit:4.0000000;stroke-dasharray:none;stroke-opacity:1.0000000"
     id="rect1311"
     width="429.89514"
     height="413.64792"
     x="55.444859"
     y="58.176041"
     rx="60.000000"
     inkscape:export-xdpi="15.000000"
     inkscape:export-ydpi="15.000000" />
  <path
     style="fill:#ffffff;fill-opacity:1.0000000;stroke:none"
     d="M 348.31250,80.031250 C 326.49461,83.517148 304.54269,86.683749 282.37500,85.718750 C 267.33558,85.667624 251.96623,85.970862 237.98281,92.152786 C 221.02006,98.973888 204.72190,86.163733 187.68371,86.192445 C 164.94259,83.659738 140.30802,83.743708 119.64252,94.707822 C 99.024122,105.33203 86.100354,127.31840 84.240098,150.13784 C 80.998263,182.68403 90.412779,214.70188 97.906831,246.03465 C 106.91874,275.01680 117.06552,304.15022 133.21653,330.00071 C 139.53769,342.71323 154.82328,352.08280 168.88660,346.29843 C 187.15384,339.61631 196.60115,321.23363 211.61109,310.17905 C 217.12153,305.19205 229.59724,305.98881 229.62500,315.03125 C 224.73259,329.50722 207.98702,335.56250 201.53125,349.00000 C 201.68153,358.60947 213.72069,360.38841 220.99732,357.67861 C 234.03740,355.38084 246.20617,347.26817 259.68820,348.24528 C 269.02356,351.43649 267.34394,363.85849 267.42253,371.81110 C 266.85122,393.24970 266.85806,416.70404 279.02290,435.27168 C 288.47283,450.13736 308.11542,452.76251 324.01685,448.88764 C 343.84271,445.60876 363.49577,432.61138 368.32542,412.12188 C 373.91092,392.10688 373.91291,371.03936 378.48696,350.86877 C 378.96397,343.60434 385.17244,342.00255 391.23663,344.04151 C 403.85232,345.95811 415.98266,351.92643 428.83510,352.08754 C 437.36612,352.96774 442.63601,342.25386 436.91002,335.94811 C 426.85843,323.23487 409.78306,318.16756 400.56250,304.68750 C 397.09624,297.09943 404.87897,290.64181 408.06074,284.28536 C 418.93792,269.05077 429.37793,253.29170 435.14926,235.32536 C 442.58771,213.62044 449.72858,191.69228 454.86633,169.32952 C 459.80161,150.28170 457.85930,127.86046 443.23088,113.40481 C 426.53849,95.985008 403.93623,84.895171 380.07059,81.609939 C 369.65146,79.399100 358.90288,79.271985 348.31250,80.031250 z M 371.56250,92.250000 C 398.77942,93.233343 428.44039,104.95524 441.59375,130.25000 C 451.32096,151.09550 444.67287,174.86591 438.46841,195.75144 C 429.51984,218.29271 423.60693,242.58114 408.97373,262.33155 C 406.76842,268.67103 399.68273,268.64726 399.87500,261.21875 C 397.33095,238.94884 396.08558,216.15058 400.34375,194.00000 C 403.15627,177.57810 398.97398,160.51543 388.87782,147.27288 C 379.19509,132.26301 366.83097,119.04172 352.57420,108.30886 C 348.06563,105.06350 345.35631,97.257843 352.52779,95.260148 C 358.30470,92.314392 365.21644,92.478361 371.56250,92.250000 z M 280.28125,94.500000 C 318.22612,96.153297 354.01295,117.37350 376.42445,147.53014 C 381.83599,154.77834 381.70203,167.77515 371.43750,170.53125 C 359.83380,173.45870 346.92109,178.35569 342.33716,190.52579 C 335.36104,207.21585 343.17284,225.55298 350.57383,240.71814 C 359.68499,258.20222 370.07708,275.09312 377.14391,293.51579 C 380.44969,304.99056 367.95923,313.17754 368.53883,324.56099 C 368.44540,339.03493 367.72951,353.51303 363.93290,367.57570 C 358.75604,387.45315 360.05757,410.33665 346.28935,426.89104 C 335.57176,438.35231 318.20080,437.21026 303.87264,436.17843 C 286.41496,434.48670 277.34830,415.35521 278.29739,399.47331 C 277.04781,376.50901 277.17242,353.50552 278.59375,330.56250 C 279.22329,320.05909 273.15346,311.13075 265.65625,304.40625 C 257.51859,297.76276 255.90794,286.43255 260.16547,277.13263 C 269.45420,255.60651 271.81938,231.32208 268.72328,208.16113 C 267.52833,194.54689 260.71229,179.42992 246.28996,175.89560 C 233.64408,171.08311 220.40850,177.20609 207.60912,175.50819 C 198.53293,172.30704 203.20860,160.77969 205.44757,154.21007 C 212.96593,126.29259 235.15018,101.09108 264.28656,95.585168 C 269.54480,94.574013 274.95849,94.903090 280.28125,94.500000 z M 166.12500,95.125000 C 180.40630,95.732322 197.63094,95.089594 208.09129,106.45487 C 215.24033,115.20684 204.70181,124.17243 201.27155,132.12191 C 190.62580,151.04652 186.61485,173.06400 188.49744,194.61887 C 190.26831,213.56319 188.56926,232.48340 187.59375,251.40625 C 187.06115,262.60148 190.57242,273.19275 195.40476,283.12710 C 199.93165,292.06664 200.92362,303.32240 193.92458,311.32620 C 185.42788,322.22926 174.39441,333.77597 160.06336,335.65255 C 145.56583,335.03992 138.70739,319.56875 132.85715,308.41646 C 119.70456,280.81510 107.42122,252.50209 101.43119,222.35919 C 94.690822,192.57038 88.876867,159.79700 101.71875,130.78125 C 112.63409,108.20384 138.00605,95.134563 162.57053,95.348176 C 163.75550,95.280234 164.93957,95.178280 166.12500,95.125000 z M 216.31250,190.87500 C 225.34525,193.68364 229.42677,205.80177 240.12415,205.10370 C 247.13988,205.11132 257.35729,205.14777 258.40900,214.22185 C 261.00052,232.84305 258.97403,252.55144 250.51097,269.55403 C 246.09100,279.21332 243.01428,293.60252 230.09415,294.40316 C 220.27263,293.29933 212.06592,285.67388 206.13433,278.19451 C 193.35612,260.29501 197.68897,237.14801 197.57893,216.56623 C 197.16536,206.05034 200.54244,191.52774 213.29266,190.78405 C 214.27515,190.61628 215.31533,190.89252 216.31250,190.87500 z M 382.96875,193.68750 C 390.64371,198.09892 386.88115,208.83623 388.12534,216.15122 C 388.26065,236.54357 389.88324,256.88772 391.31250,277.18750 C 391.36282,281.93027 386.02968,290.18794 383.72540,281.75259 C 370.84585,259.27516 356.62497,236.88903 350.12500,211.56250 C 347.19586,204.50770 351.91692,201.38918 358.48079,203.73697 C 366.54488,204.57054 373.31331,200.04621 378.90625,194.81250 C 380.26666,194.35503 381.43870,193.20159 382.96875,193.68750 z M 392.34375,315.81250 C 405.92202,322.34752 420.32771,329.34585 429.92973,341.29303 C 428.64804,345.64746 420.47508,342.91800 416.57119,342.25681 C 404.63719,338.57732 391.70776,335.39633 382.00000,327.18750 C 377.88281,322.22407 381.36695,311.53580 388.85886,314.80531 C 390.02049,315.14104 391.18212,315.47677 392.34375,315.81250 z M 260.87500,317.68750 C 267.05823,323.65011 260.67502,332.71659 254.28125,335.46875 C 241.93404,341.74522 229.37832,349.50850 215.28125,350.50000 C 210.92148,347.96936 219.70436,342.30346 221.90050,339.73655 C 232.82993,330.87430 244.31653,321.23919 257.93742,317.17468 C 258.98914,316.97619 259.92096,317.29728 260.87500,317.68750 z "
     id="path2267" />
  <path
     style="fill:url(#linearGradient2223);fill-opacity:1.0;fill-rule:evenodd;stroke:none;stroke-width:3.5224507;stroke-linecap:square;stroke-linejoin:round;stroke-miterlimit:4.0000000;stroke-opacity:1.0000000"
     d="M 115.44486,58.176041 L 467.82807,58.176041 C 399.09754,124.56185 371.76564,243.24067 261.63647,257.33347 C 149.36319,271.70064 124.17540,390.10510 55.444859,456.49091 L 55.444859,118.17604 C 55.444859,84.936041 82.204859,58.176041 115.44486,58.176041 z "
     id="rect2189"
     sodipodi:nodetypes="cczccc" />
  <path
     style="fill:url(#linearGradient2241);fill-opacity:1.0;fill-rule:evenodd;stroke:none;stroke-width:3.5224507;stroke-linecap:square;stroke-linejoin:round;stroke-miterlimit:4.0000000;stroke-opacity:1.0000000"
     d="M 115.44486,58.176041 L 325.34000,58.176041 C 222.04162,78.176041 133.54593,97.336908 115.44486,118.17604 C 96.665745,139.79578 75.444859,213.94132 55.444859,311.82396 L 55.444859,118.17604 C 55.444859,84.936041 82.204859,58.176041 115.44486,58.176041 z "
     id="rect2159"
     sodipodi:nodetypes="cczccc" />
  <path
     style="fill:url(#linearGradient2233);fill-opacity:1.0;fill-rule:evenodd;stroke:none;stroke-width:3.5224507;stroke-linecap:square;stroke-linejoin:round;stroke-miterlimit:4.0000000;stroke-opacity:1.0000000;opacity:1.0000000"
     d="M 425.34000,471.82396 L 215.44486,471.82396 C 318.74324,451.82396 407.23893,432.66309 425.34000,411.82396 C 444.11911,390.20422 465.34000,316.05868 485.34000,218.17604 L 485.34000,411.82396 C 485.34000,445.06396 458.58000,471.82396 425.34000,471.82396 z "
     id="path2207"
     sodipodi:nodetypes="cczccc" />
  <path
     style="opacity:1.0000000;fill:#006384;fill-opacity:1.0000000;fill-rule:evenodd;stroke:none;stroke-width:3.5224507;stroke-linecap:square;stroke-linejoin:round;stroke-miterlimit:4.0000000;stroke-dasharray:none;stroke-opacity:1.0000000"
     d="M 102.40625,45.625000 C 69.166250,45.625000 42.406250,72.385000 42.406250,105.62500 L 42.406250,424.37500 C 42.406250,457.61500 69.166254,484.37498 102.40625,484.37500 L 438.40625,484.37500 C 471.64625,484.37500 498.40625,457.61498 498.40625,424.37500 L 498.40625,105.62500 C 498.40625,72.385000 471.64625,45.625000 438.40625,45.625000 L 102.40625,45.625000 z M 115.43750,60.187500 L 425.34375,60.187500 C 458.58375,60.187500 483.34375,84.947500 483.34375,118.18750 L 483.34375,411.81250 C 483.34375,445.05248 458.58375,469.81250 425.34375,469.81250 L 115.43750,469.81250 C 82.197504,469.81248 57.437500,445.05250 57.437500,411.81250 L 57.437500,118.18750 C 57.437500,84.947500 82.197500,60.187500 115.43750,60.187500 z "
     id="rect2079"
     sodipodi:nodetypes="cccccccccccccccccc" />
  <path
     style="font-size:144.00000px;font-style:normal;font-variant:normal;font-weight:normal;font-stretch:normal;text-align:start;line-height:125.00000%;writing-mode:lr-tb;text-anchor:start;fill:#ffffff;fill-opacity:1.0000000;stroke:none;stroke-width:1.0000000px;stroke-linecap:butt;stroke-linejoin:miter;stroke-opacity:1.0000000;font-family:Alicia"
     d="M 180.40625,368.71875 C 167.52134,370.00001 160.54814,382.93086 158.85795,394.52528 C 155.29507,410.03327 149.99268,425.09002 145.56332,440.30817 C 144.99461,445.09936 144.20365,452.26422 147.83674,455.39946 C 155.85742,457.59565 156.46500,447.49951 158.59638,442.39470 C 160.77436,438.10729 160.68588,431.37047 164.73740,428.71676 C 173.72876,427.26806 183.01102,428.91269 192.00000,428.06250 C 192.63873,436.23303 191.59302,445.74618 195.78125,453.56250 C 199.40280,457.64011 207.87838,456.10323 206.12500,449.68750 C 202.90116,426.82470 209.41421,402.70797 201.91551,380.37869 C 197.95243,372.80656 188.92131,367.89226 180.40625,368.71875 z M 187.50000,383.06250 C 196.97534,389.63608 193.01369,402.68633 193.78125,412.46875 C 190.18196,416.06604 183.37867,413.76587 178.62500,415.68750 C 175.44829,415.43259 166.15806,418.07960 167.84868,412.25179 C 172.00800,402.70810 169.29793,389.08140 179.24613,382.92300 C 181.82980,381.63491 184.87221,382.19925 187.50000,383.06250 z "
     id="text1333" />
</svg>
